<svg xmlns="http://www.w3.org/2000/svg" width="19" height="24" viewBox="0 0 19 24">
  <g fill="none" fill-rule="evenodd">
    <ellipse cx="16.569" cy="21.6" fill="#49367E" fill-rule="nonzero" rx="2.319" ry="2.4"/>
    <path fill="#FE5B24" fill-rule="nonzero" d="M2.375,21.6 L11.875,21.6 C12.5308381,21.6 13.0625,22.1372583 13.0625,22.8 C13.0625,23.4627417 12.5308381,24 11.875,24 L1.1875,24 C0.53166186,24 0,23.4627417 0,22.8 L0,16.8 C0,16.1372583 0.53166186,15.6 1.1875,15.6 C1.84333814,15.6 2.375,16.1372583 2.375,16.8 L2.375,21.6 Z"/>
    <path fill="#FE5B24" fill-rule="nonzero" d="M17.8125,16.8 C17.8125,17.4627417 17.2808381,18 16.625,18 C15.9691619,18 15.4375,17.4627417 15.4375,16.8 C15.4375,13.5086951 12.5336471,10.8 8.90625,10.8 C5.27885288,10.8 2.375,13.5086952 2.375,16.8 C2.375,17.4627417 1.84333814,18 1.1875,18 C0.53166186,18 0,17.4627417 0,16.8 C0,12.1384044 4.0077513,8.4 8.90625,8.4 C13.8047487,8.4 17.8125,12.1384044 17.8125,16.8 Z"/>
    <path fill="#FE5B24" fill-rule="nonzero" d="M8.90625,10.8 C5.95497837,10.8 3.5625,8.38233765 3.5625,5.4 C3.5625,2.41766235 5.95497837,0 8.90625,0 C11.8575216,0 14.25,2.41766235 14.25,5.4 C14.25,8.38233765 11.8575216,10.8 8.90625,10.8 Z M8.90625,8.4 C10.5458454,8.4 11.875,7.05685425 11.875,5.4 C11.875,3.74314575 10.5458454,2.4 8.90625,2.4 C7.26665465,2.4 5.9375,3.74314575 5.9375,5.4 C5.9375,7.05685425 7.26665465,8.4 8.90625,8.4 Z"/>
  </g>
</svg>
