<?xml version="1.0" encoding="utf-8"?>
<!-- Generator: Adobe Illustrator 22.1.0, SVG Export Plug-In . SVG Version: 6.00 Build 0)  -->
<svg version="1.1" id="Layer_1" xmlns="http://www.w3.org/2000/svg" xmlns:xlink="http://www.w3.org/1999/xlink" x="0px" y="0px"
	 viewBox="0 0 125.8 32" style="enable-background:new 0 0 125.8 32;" xml:space="preserve">
<style type="text/css">
	.st0{fill:#FE5B24;}
</style>
<path class="st0" d="M116.3,0.2c4.7,0,8.1,2.2,9.5,7.6l-5.1,0.8c-0.1-2.8-1.8-3.6-4.3-3.6c-1.9,0-3.3,0.8-3.3,2.2
	c0,1,0.7,2.1,2.9,2.5l3.9,0.7c3.8,0.7,5.9,3.2,5.9,6.6c0,5-4.6,7.5-8.8,7.5c-4.5,0-9.5-2.3-10.3-7.9l5.1-0.8c0.3,2.9,2.1,4,5,4
	c2.2,0,3.7-0.8,3.7-2.2c0-1.2-0.7-2.2-3.1-2.6l-3.5-0.6c-3.7-0.7-6-3.3-6-6.7C107.7,2.4,112.5,0.2,116.3,0.2 M17.3,0.8L12,16.3
	L6.7,0.8H0.4l9.3,23h4.6l9.3-23C23.6,0.8,17.3,0.8,17.3,0.8z M44.7,7.4c0,1.8-1.5,3.1-3.1,3.1c-1.7,0-3.1-1.3-3.1-3.1
	s1.5-3.1,3.1-3.1S44.7,5.6,44.7,7.4L44.7,7.4z M37.4,20.1c3.9,0,6.1-1.9,8.2-4.6c1.1-1.5,2.6-1.8,3.6-1c1.1,0.8,1.1,2.4,0,3.8
	c-3,4-6.9,6.4-11.8,6.4c-5.4,0-10-3-13.4-8c-0.9-1.3-0.7-2.8,0.3-3.6c1.1-0.8,2.6-0.4,3.5,1C30.4,17.7,33.5,20.1,37.4,20.1
	L37.4,20.1z M59.6,12.3c0,4.7,2.7,7.2,5.8,7.2c2.9,0,5.9-2.3,5.9-7.2c0-4.8-3-7.1-5.8-7.1C62.3,5.2,59.6,7.4,59.6,12.3z M59.6,0.8V4
	c1.6-2.2,4-3.8,7.6-3.8C71.7,0.2,77,4,77,12c0,8.4-5.1,12.5-10.3,12.5c-2.8,0-5.2-1.1-7.1-3.6v11h-5.7v-31L59.6,0.8L59.6,0.8z
	 M86.8,12.3c0,4.7,2.7,7.2,5.8,7.2c2.9,0,5.9-2.3,5.9-7.2c0-4.8-3-7.1-5.8-7.1C89.6,5.2,86.8,7.4,86.8,12.3L86.8,12.3z M86.8,0.8V4
	c1.6-2.2,4-3.8,7.6-3.8c4.5,0,9.8,3.8,9.8,11.8c0,8.4-5.1,12.5-10.3,12.5c-2.8,0-5.2-1.1-7.1-3.6v11h-5.7v-31L86.8,0.8L86.8,0.8z"/>
</svg>
